HIERARCHY
ROOT hip
{
	OFFSET 0.000000 0.000000 0.000000 
	CHANNELS 6 Xposition Yposition Zposition Xrotation Zrotation Yrotation
	JOINT abdomen
	{
		OFFSET 0.000000 3.402643 0.000000 
		CHANNELS 3 Xrotation Zrotation Yrotation
		JOINT chest
		{
			OFFSET 0.000000 8.438565 -0.680529 
			CHANNELS 3 Xrotation Zrotation Yrotation
			JOINT neck
			{
				OFFSET 0.000000 10.207942 -0.272212 
				CHANNELS 3 Xrotation Zrotation Yrotation
				JOINT head
				{
					OFFSET 0.000000 3.130431 0.000000 
					CHANNELS 3 Xrotation Zrotation Yrotation
					End Site
					{
						OFFSET 0.000000 3.130435 0.000000 
					}
				}
			}
			JOINT lCollar
			{
				OFFSET 3.470700 6.669187 -0.816635 
				CHANNELS 3 Yrotation Zrotation Xrotation
				JOINT lShldr
				{
					OFFSET 3.198488 0.000000 0.000000 
					CHANNELS 3 Zrotation Yrotation Xrotation
					JOINT lForeArm
					{
						OFFSET 10.139888 0.000000 0.000000 
						CHANNELS 3 Yrotation Zrotation Xrotation
						JOINT lHand
						{
							OFFSET 8.370511 0.000000 0.000000 
							CHANNELS 3 Zrotation Yrotation Xrotation
							End Site
							{
								OFFSET 4.083176 0.000000 0.000000 
							}
						}
					}
				}
			}
			JOINT rCollar
			{
				OFFSET -3.470700 6.669187 -0.816635 
				CHANNELS 3 Yrotation Zrotation Xrotation
				JOINT rShldr
				{
					OFFSET -3.198488 0.000000 0.000000 
					CHANNELS 3 Zrotation Yrotation Xrotation
					JOINT rForeArm
					{
						OFFSET -10.139888 0.000000 0.000000 
						CHANNELS 3 Yrotation Zrotation Xrotation
						JOINT rHand
						{
							OFFSET -8.370511 0.000000 0.000000 
							CHANNELS 3 Zrotation Yrotation Xrotation
							End Site
							{
								OFFSET -4.083176 0.000000 0.000000 
							}
						}
					}
				}
			}
		}
	}
	JOINT lThigh
	{
		OFFSET 5.308129 -1.633274 1.361059 
		CHANNELS 3 Xrotation Zrotation Yrotation
		JOINT lShin
		{
			OFFSET -2.041588 -20.007561 0.000000 
			CHANNELS 3 Xrotation Zrotation Yrotation
			JOINT lFoot
			{
				OFFSET 0.000000 -19.190928 -1.224953 
				CHANNELS 3 Xrotation Yrotation Zrotation
				End Site
				{
					OFFSET 0.000000 -2.449906 4.627600 
				}
			}
		}
	}
	JOINT rThigh
	{
		OFFSET -5.308129 -1.633274 1.361059 
		CHANNELS 3 Xrotation Zrotation Yrotation
		JOINT rShin
		{
			OFFSET 2.041588 -20.007561 0.000000 
			CHANNELS 3 Xrotation Zrotation Yrotation
			JOINT rFoot
			{
				OFFSET 0.000000 -19.190928 -1.224953 
				CHANNELS 3 Xrotation Yrotation Zrotation
				End Site
				{
					OFFSET 0.000000 -2.449906 4.627600 
				}
			}
		}
	}
}
MOTION
Frames: 11
Frame Time: 0.033333
-40.685215 50.710239 123.573067 -27.333982 4.199219 13.291731 50.466824 -15.070261 -0.117026 -19.687500 13.984376 -3.308187 51.063168 8.107644 2.471410 -46.718754 -8.789062 -38.984379 2.000000 -2.000000 0.000000 -59.648438 26.259768 -58.212894 -113.808258 1.179243 -2.813197 36.727894 24.756182 -2.928301 -2.000000 2.000000 0.000000 35.732422 -26.533205 -26.445313 118.324028 -1.754872 -2.670371 -37.627281 -51.225163 46.443504 -1.172009 16.288603 19.120598 48.032337 -3.795499 -3.678939 22.079180 5.591258 10.367902 7.515562 -14.516899 -16.209034 41.877777 3.296803 3.110684 16.441813 -11.484948 9.272636 
-40.463631 50.276943 123.092827 -27.099609 2.480469 8.730892 50.709629 -16.475088 1.507254 -20.263672 13.486328 -3.710938 51.063168 8.107644 2.471410 -46.708988 -6.347655 -39.306641 2.000000 -2.000000 0.000000 -54.257813 32.851559 -67.734375 -114.862633 1.218805 -2.805720 41.145699 23.249435 -1.520793 -2.000000 2.000000 0.000000 31.044920 -17.978516 -26.337893 115.684280 -1.634925 -2.546075 -48.745914 -45.105049 49.062000 -2.832309 16.678886 20.143656 50.863815 -3.766958 -3.925247 20.659679 8.155372 7.132375 8.112861 -13.620893 -15.641073 39.598724 3.453431 3.138086 4.249702 -14.150607 4.499846 
-40.165417 50.339962 122.614914 -25.859375 1.416016 6.152584 47.752258 -15.571882 0.354630 -20.820314 13.173828 -3.710937 51.063168 8.107644 2.471410 -42.333988 -4.550781 -36.494141 2.000000 -2.000000 0.000000 -51.865234 34.218750 -70.908203 -103.613617 0.778959 -2.799555 38.194912 27.350273 0.503979 -2.000000 2.000000 0.000000 25.498047 -10.839844 -20.079960 111.459709 -1.528676 -3.028566 -56.981049 -38.710377 50.794247 -1.719819 16.774353 21.164806 56.822094 -3.348408 -4.249679 18.364075 10.091433 4.442637 6.332063 -14.152618 -15.150985 38.550621 3.521677 2.916528 5.796720 -11.487012 3.558330 
-39.785053 50.678726 122.147408 -23.388672 0.966797 6.787274 42.509754 -13.411889 -2.078005 -21.367188 13.027345 -3.515625 51.063168 8.107644 2.471410 -36.416019 -3.427734 -32.363285 2.000000 -2.000000 0.000000 -51.015621 33.388672 -72.445801 -85.519669 0.053878 -3.158386 31.818054 34.677319 1.598227 -2.000000 2.000000 0.000000 20.820313 -7.734375 -3.037110 107.449463 -0.996576 -3.095575 -63.305042 -32.326385 55.383595 1.656592 15.656848 22.602921 63.661514 -2.783985 -4.535095 18.620436 11.857151 -3.001467 4.850142 -14.760032 -16.278133 36.618961 3.638736 2.796755 10.330881 -11.516039 1.450932 
-39.317329 51.088379 121.704231 -20.751951 0.810547 7.597794 37.348991 -11.196826 -5.102356 -21.914063 12.880860 -3.652344 51.063168 8.107644 2.471410 -34.072266 -2.568359 -28.691841 2.000000 -2.000000 0.000000 -51.328129 32.480469 -74.218750 -71.651253 -0.801548 -2.727421 24.299070 41.814026 -3.094495 -2.000000 2.000000 0.000000 14.160156 -8.427734 17.695311 102.181572 -0.605650 -3.258645 -67.730515 -26.001211 60.474098 7.011230 13.749634 22.733097 63.723404 -3.126197 -4.425639 17.729988 10.465487 -8.810874 3.794724 -15.431991 -18.337837 33.270000 3.911883 2.434583 14.522563 -10.896088 -1.458821 
-38.582634 51.308971 121.190430 -17.939453 0.498047 8.798900 35.047993 -9.701618 -7.775045 -22.285156 12.724610 -3.943161 51.063168 8.107644 2.471410 -40.166016 0.664063 -25.654299 2.000000 -2.000000 0.000000 -54.218750 32.236328 -78.451820 -66.210495 -0.817324 -2.325314 18.816133 46.548935 -16.473104 -2.000000 2.000000 0.000000 5.488281 -12.197265 29.921873 95.350899 -0.098511 -3.063187 -70.083717 -24.713163 64.502350 14.932257 10.037113 22.049662 51.372856 -3.345622 -4.075926 14.070606 6.501626 -9.411711 2.380827 -16.315687 -20.342724 30.101307 4.145417 2.569064 18.250097 -11.189137 -3.738907 
-37.462605 51.151409 120.540092 -14.951171 0.322266 10.097710 35.745422 -8.791260 -9.343421 -22.841797 12.578126 -4.970704 51.063168 8.107644 2.471410 -53.232426 6.865234 -23.886723 2.000000 -2.000000 0.000000 -57.783203 30.068361 -86.538071 -65.338120 -1.016727 -2.558312 12.789297 49.850544 -34.654770 -2.000000 2.000000 0.000000 -5.791016 -21.484375 30.537109 84.283348 0.411997 -2.926097 -68.826981 -32.804096 68.117844 24.621544 5.587017 19.474047 32.792263 -4.971690 -2.891323 9.301990 0.840448 -7.913867 0.066129 -17.748116 -21.548239 28.513136 4.292199 2.478617 20.442245 -12.262987 -4.906618 
-36.043671 50.647205 119.800682 -11.953125 0.000000 11.591798 37.606331 -8.119328 -10.472498 -23.212891 12.236328 -6.494141 51.063168 8.107644 2.471410 -67.773438 13.281250 -23.798828 2.000000 -2.000000 0.000000 -60.117188 25.380859 -90.064171 -66.212715 -0.989045 -2.755657 7.026157 50.447670 -46.425678 -2.000000 2.000000 0.000000 -16.503908 -35.712891 20.400389 71.802940 0.752933 -2.564010 -66.029694 -46.327320 70.827621 29.762648 2.100676 16.985346 20.084064 -5.497938 -1.863221 3.710886 -2.589243 -6.960893 -4.678095 -19.960529 -20.345718 29.558504 4.419160 2.427719 25.053722 -12.278893 -4.622125 
-34.412060 50.079983 119.023041 -8.974609 -0.537109 13.242116 40.528561 -7.410458 -11.651027 -23.759766 11.904298 -8.046876 51.063168 8.107644 2.471410 -80.156250 17.880856 -24.111328 2.000000 -2.000000 0.000000 -64.599609 17.998049 -87.653229 -68.136482 -0.792614 -2.405118 3.096565 49.091728 -47.771599 -2.000000 2.000000 0.000000 -10.878906 -51.484375 -1.951000 63.730343 1.042689 -2.331899 -62.143295 -58.135845 67.087563 27.930586 0.070889 14.396989 18.137325 -5.614555 -1.397749 -3.156496 -2.883150 -9.336038 -11.756037 -19.729107 -16.733389 36.569107 4.042465 2.753006 24.663612 -11.231867 -4.213866 
-32.654079 49.638817 118.254692 -6.162109 -0.878906 14.833984 43.763252 -6.571214 -12.707151 -24.140625 11.396484 -9.570313 51.063168 8.107644 2.471410 -88.281250 17.490232 -23.170893 2.000000 -2.000000 0.000000 -69.941406 9.628906 -81.668282 -71.123619 -0.820481 -2.716544 -1.145868 47.109100 -44.999496 -2.000000 2.000000 0.000000 32.109375 -58.242184 -54.462891 64.781700 1.066039 -2.565404 -53.806648 -65.625786 48.210274 23.588087 -1.677853 12.407430 20.418495 -5.575546 -1.593781 -6.086466 -2.887505 -10.515435 -21.374895 -17.731949 -11.114040 48.342602 3.263847 3.817560 20.955839 -6.100706 -2.601520 
-30.855949 49.489132 117.545334 -3.701171 -1.582031 16.425512 47.018970 -5.661215 -14.160091 -24.511719 11.054688 -10.740314 51.063168 8.107644 2.471410 -93.115234 13.544921 -20.066072 2.000000 -2.000000 0.000000 -75.273438 2.363281 -71.474609 -75.174294 -0.679467 -2.646382 -3.491094 45.379196 -38.418240 -2.000000 2.000000 0.000000 72.373047 -38.271484 -103.486328 70.747658 0.810295 -2.541126 -35.696247 -68.529732 15.789936 18.408672 -3.326004 11.179226 24.141970 -5.395751 -2.008812 -5.101203 -2.476206 -11.720224 -29.877020 -14.586456 -5.749150 59.580101 2.412088 4.169106 15.333886 0.451460 0.154725 
